<mxfile host="app.diagrams.net" agent="Mozilla/5.0 (Windows NT 10.0; Win64; x64) AppleWebKit/537.36 (KHTML, like Gecko) Chrome/128.0.0.0 Safari/537.36" version="24.7.14">
  <diagram name="Сторінка-1" id="c8oyarQY2sgMQnPSOdrr">
    <mxGraphModel dx="1050" dy="522" grid="1" gridSize="10" guides="1" tooltips="1" connect="1" arrows="1" fold="1" page="1" pageScale="1" pageWidth="827" pageHeight="1169" math="0" shadow="0">
      <root>
        <mxCell id="0" />
        <mxCell id="1" parent="0" />
        <mxCell id="8fL-4DH12xq-aiq9hTpi-1" value="" style="rounded=0;whiteSpace=wrap;html=1;" parent="1" vertex="1">
          <mxGeometry x="70" y="50" width="950" height="1250" as="geometry" />
        </mxCell>
        <mxCell id="cNCLYO30BbsS-4qU9CMe-2" value="provider" style="text;html=1;align=center;verticalAlign=middle;whiteSpace=wrap;rounded=0;" vertex="1" parent="1">
          <mxGeometry x="80" y="60" width="60" height="30" as="geometry" />
        </mxCell>
        <mxCell id="cNCLYO30BbsS-4qU9CMe-3" value="store" style="text;html=1;align=center;verticalAlign=middle;whiteSpace=wrap;rounded=0;" vertex="1" parent="1">
          <mxGeometry x="130" y="60" width="60" height="30" as="geometry" />
        </mxCell>
        <mxCell id="cNCLYO30BbsS-4qU9CMe-4" value="" style="rounded=0;whiteSpace=wrap;html=1;" vertex="1" parent="1">
          <mxGeometry x="354" y="70" width="246" height="130" as="geometry" />
        </mxCell>
        <mxCell id="cNCLYO30BbsS-4qU9CMe-5" value="app" style="text;html=1;align=center;verticalAlign=middle;whiteSpace=wrap;rounded=0;" vertex="1" parent="1">
          <mxGeometry x="354" y="170" width="60" height="30" as="geometry" />
        </mxCell>
        <mxCell id="cNCLYO30BbsS-4qU9CMe-7" value="" style="rounded=0;whiteSpace=wrap;html=1;" vertex="1" parent="1">
          <mxGeometry x="354" y="270" width="246" height="150" as="geometry" />
        </mxCell>
        <mxCell id="cNCLYO30BbsS-4qU9CMe-8" value="ToDoView" style="text;html=1;align=center;verticalAlign=middle;whiteSpace=wrap;rounded=0;" vertex="1" parent="1">
          <mxGeometry x="354" y="390" width="60" height="30" as="geometry" />
        </mxCell>
        <mxCell id="cNCLYO30BbsS-4qU9CMe-10" value="toDoList" style="text;html=1;align=center;verticalAlign=middle;whiteSpace=wrap;rounded=0;" vertex="1" parent="1">
          <mxGeometry x="485" y="310" width="80" height="30" as="geometry" />
        </mxCell>
        <mxCell id="cNCLYO30BbsS-4qU9CMe-12" value="" style="rounded=0;whiteSpace=wrap;html=1;" vertex="1" parent="1">
          <mxGeometry x="140" y="490" width="246" height="150" as="geometry" />
        </mxCell>
        <mxCell id="cNCLYO30BbsS-4qU9CMe-13" value="TodoCreate" style="text;html=1;align=center;verticalAlign=middle;whiteSpace=wrap;rounded=0;" vertex="1" parent="1">
          <mxGeometry x="146" y="610" width="60" height="30" as="geometry" />
        </mxCell>
        <mxCell id="cNCLYO30BbsS-4qU9CMe-14" value="title" style="text;html=1;align=center;verticalAlign=middle;whiteSpace=wrap;rounded=0;" vertex="1" parent="1">
          <mxGeometry x="256" y="510" width="60" height="30" as="geometry" />
        </mxCell>
        <mxCell id="cNCLYO30BbsS-4qU9CMe-15" value="store:" style="text;html=1;align=center;verticalAlign=middle;whiteSpace=wrap;rounded=0;" vertex="1" parent="1">
          <mxGeometry x="490" y="290" width="60" height="30" as="geometry" />
        </mxCell>
        <mxCell id="cNCLYO30BbsS-4qU9CMe-16" value="checkedCompleted" style="text;html=1;align=center;verticalAlign=middle;whiteSpace=wrap;rounded=0;" vertex="1" parent="1">
          <mxGeometry x="296" y="530" width="60" height="30" as="geometry" />
        </mxCell>
        <mxCell id="cNCLYO30BbsS-4qU9CMe-18" value="" style="rounded=0;whiteSpace=wrap;html=1;" vertex="1" parent="1">
          <mxGeometry x="540" y="490" width="246" height="150" as="geometry" />
        </mxCell>
        <mxCell id="cNCLYO30BbsS-4qU9CMe-19" value="TodoSearchTable" style="text;html=1;align=center;verticalAlign=middle;whiteSpace=wrap;rounded=0;" vertex="1" parent="1">
          <mxGeometry x="560" y="610" width="60" height="30" as="geometry" />
        </mxCell>
        <mxCell id="cNCLYO30BbsS-4qU9CMe-20" value="searchValue" style="text;html=1;align=center;verticalAlign=middle;whiteSpace=wrap;rounded=0;" vertex="1" parent="1">
          <mxGeometry x="700" y="530" width="60" height="30" as="geometry" />
        </mxCell>
        <mxCell id="cNCLYO30BbsS-4qU9CMe-21" value="ToDoFilterList" style="text;html=1;align=center;verticalAlign=middle;whiteSpace=wrap;rounded=0;" vertex="1" parent="1">
          <mxGeometry x="700" y="510" width="60" height="30" as="geometry" />
        </mxCell>
        <mxCell id="cNCLYO30BbsS-4qU9CMe-22" value="state:" style="text;html=1;align=center;verticalAlign=middle;whiteSpace=wrap;rounded=0;" vertex="1" parent="1">
          <mxGeometry x="680" y="490" width="60" height="30" as="geometry" />
        </mxCell>
        <mxCell id="cNCLYO30BbsS-4qU9CMe-23" value="props:" style="text;html=1;align=center;verticalAlign=middle;whiteSpace=wrap;rounded=0;" vertex="1" parent="1">
          <mxGeometry x="680" y="550" width="60" height="30" as="geometry" />
        </mxCell>
        <mxCell id="cNCLYO30BbsS-4qU9CMe-24" value="toDoList" style="text;html=1;align=center;verticalAlign=middle;whiteSpace=wrap;rounded=0;" vertex="1" parent="1">
          <mxGeometry x="690" y="570" width="60" height="30" as="geometry" />
        </mxCell>
        <mxCell id="cNCLYO30BbsS-4qU9CMe-26" value="" style="rounded=0;whiteSpace=wrap;html=1;" vertex="1" parent="1">
          <mxGeometry x="340" y="730" width="246" height="150" as="geometry" />
        </mxCell>
        <mxCell id="cNCLYO30BbsS-4qU9CMe-28" value="" style="rounded=0;whiteSpace=wrap;html=1;" vertex="1" parent="1">
          <mxGeometry x="750" y="730" width="246" height="150" as="geometry" />
        </mxCell>
        <mxCell id="cNCLYO30BbsS-4qU9CMe-29" value="SearchBar" style="text;html=1;align=center;verticalAlign=middle;whiteSpace=wrap;rounded=0;" vertex="1" parent="1">
          <mxGeometry x="340" y="850" width="60" height="30" as="geometry" />
        </mxCell>
        <mxCell id="cNCLYO30BbsS-4qU9CMe-30" value="searchValue" style="text;html=1;align=center;verticalAlign=middle;whiteSpace=wrap;rounded=0;" vertex="1" parent="1">
          <mxGeometry x="419" y="760" width="80" height="30" as="geometry" />
        </mxCell>
        <mxCell id="cNCLYO30BbsS-4qU9CMe-31" value="handleSearchValueChange" style="text;html=1;align=center;verticalAlign=middle;whiteSpace=wrap;rounded=0;" vertex="1" parent="1">
          <mxGeometry x="419" y="790" width="160" height="30" as="geometry" />
        </mxCell>
        <mxCell id="cNCLYO30BbsS-4qU9CMe-32" value="handleResetFilter" style="text;html=1;align=center;verticalAlign=middle;whiteSpace=wrap;rounded=0;" vertex="1" parent="1">
          <mxGeometry x="419" y="820" width="110" height="30" as="geometry" />
        </mxCell>
        <mxCell id="cNCLYO30BbsS-4qU9CMe-33" value="ToDoTable" style="text;html=1;align=center;verticalAlign=middle;whiteSpace=wrap;rounded=0;" vertex="1" parent="1">
          <mxGeometry x="760" y="840" width="60" height="30" as="geometry" />
        </mxCell>
        <mxCell id="cNCLYO30BbsS-4qU9CMe-34" value="toDoList" style="text;html=1;align=center;verticalAlign=middle;whiteSpace=wrap;rounded=0;" vertex="1" parent="1">
          <mxGeometry x="880" y="750" width="70" height="30" as="geometry" />
        </mxCell>
        <mxCell id="cNCLYO30BbsS-4qU9CMe-35" value="props:" style="text;html=1;align=center;verticalAlign=middle;whiteSpace=wrap;rounded=0;" vertex="1" parent="1">
          <mxGeometry x="880" y="730" width="60" height="30" as="geometry" />
        </mxCell>
        <mxCell id="cNCLYO30BbsS-4qU9CMe-36" value="state:" style="text;html=1;align=center;verticalAlign=middle;whiteSpace=wrap;rounded=0;" vertex="1" parent="1">
          <mxGeometry x="866" y="770" width="80" height="30" as="geometry" />
        </mxCell>
        <mxCell id="cNCLYO30BbsS-4qU9CMe-37" value="totalCount" style="text;html=1;align=center;verticalAlign=middle;whiteSpace=wrap;rounded=0;" vertex="1" parent="1">
          <mxGeometry x="880" y="790" width="70" height="30" as="geometry" />
        </mxCell>
        <mxCell id="cNCLYO30BbsS-4qU9CMe-38" value="currentPage" style="text;html=1;align=center;verticalAlign=middle;whiteSpace=wrap;rounded=0;" vertex="1" parent="1">
          <mxGeometry x="880" y="820" width="80" height="30" as="geometry" />
        </mxCell>
        <mxCell id="cNCLYO30BbsS-4qU9CMe-39" value="pageSize" style="text;html=1;align=center;verticalAlign=middle;whiteSpace=wrap;rounded=0;" vertex="1" parent="1">
          <mxGeometry x="880" y="850" width="66" height="30" as="geometry" />
        </mxCell>
        <mxCell id="cNCLYO30BbsS-4qU9CMe-40" value="ToDoAll" style="text;html=1;align=center;verticalAlign=middle;whiteSpace=wrap;rounded=0;" vertex="1" parent="1">
          <mxGeometry x="490" y="330" width="70" height="30" as="geometry" />
        </mxCell>
        <mxCell id="cNCLYO30BbsS-4qU9CMe-41" value="state:" style="text;html=1;align=center;verticalAlign=middle;whiteSpace=wrap;rounded=0;" vertex="1" parent="1">
          <mxGeometry x="261" y="490" width="60" height="30" as="geometry" />
        </mxCell>
        <mxCell id="cNCLYO30BbsS-4qU9CMe-42" value="CreateToDo" style="text;html=1;align=center;verticalAlign=middle;whiteSpace=wrap;rounded=0;" vertex="1" parent="1">
          <mxGeometry x="280" y="569" width="60" height="30" as="geometry" />
        </mxCell>
        <mxCell id="cNCLYO30BbsS-4qU9CMe-43" value="store:" style="text;html=1;align=center;verticalAlign=middle;whiteSpace=wrap;rounded=0;" vertex="1" parent="1">
          <mxGeometry x="261" y="550" width="60" height="30" as="geometry" />
        </mxCell>
        <mxCell id="cNCLYO30BbsS-4qU9CMe-44" value="props:" style="text;html=1;align=center;verticalAlign=middle;whiteSpace=wrap;rounded=0;" vertex="1" parent="1">
          <mxGeometry x="412" y="730" width="60" height="30" as="geometry" />
        </mxCell>
        <mxCell id="cNCLYO30BbsS-4qU9CMe-46" value="" style="endArrow=none;html=1;rounded=0;entryX=0.5;entryY=1;entryDx=0;entryDy=0;exitX=0.5;exitY=0;exitDx=0;exitDy=0;" edge="1" parent="1" source="cNCLYO30BbsS-4qU9CMe-7" target="cNCLYO30BbsS-4qU9CMe-4">
          <mxGeometry width="50" height="50" relative="1" as="geometry">
            <mxPoint x="300" y="380" as="sourcePoint" />
            <mxPoint x="350" y="330" as="targetPoint" />
          </mxGeometry>
        </mxCell>
        <mxCell id="cNCLYO30BbsS-4qU9CMe-47" value="" style="endArrow=none;html=1;rounded=0;entryX=0.5;entryY=1;entryDx=0;entryDy=0;exitX=0;exitY=0;exitDx=0;exitDy=0;" edge="1" parent="1" source="cNCLYO30BbsS-4qU9CMe-41" target="cNCLYO30BbsS-4qU9CMe-7">
          <mxGeometry width="50" height="50" relative="1" as="geometry">
            <mxPoint x="300" y="380" as="sourcePoint" />
            <mxPoint x="350" y="330" as="targetPoint" />
          </mxGeometry>
        </mxCell>
        <mxCell id="cNCLYO30BbsS-4qU9CMe-48" value="" style="endArrow=none;html=1;rounded=0;entryX=0.5;entryY=0;entryDx=0;entryDy=0;exitX=0.5;exitY=1;exitDx=0;exitDy=0;" edge="1" parent="1" source="cNCLYO30BbsS-4qU9CMe-7" target="cNCLYO30BbsS-4qU9CMe-18">
          <mxGeometry width="50" height="50" relative="1" as="geometry">
            <mxPoint x="487" y="280" as="sourcePoint" />
            <mxPoint x="487" y="210" as="targetPoint" />
          </mxGeometry>
        </mxCell>
        <mxCell id="cNCLYO30BbsS-4qU9CMe-49" value="" style="endArrow=none;html=1;rounded=0;entryX=0.5;entryY=1;entryDx=0;entryDy=0;exitX=1;exitY=0;exitDx=0;exitDy=0;" edge="1" parent="1" source="cNCLYO30BbsS-4qU9CMe-44" target="cNCLYO30BbsS-4qU9CMe-18">
          <mxGeometry width="50" height="50" relative="1" as="geometry">
            <mxPoint x="300" y="880" as="sourcePoint" />
            <mxPoint x="350" y="830" as="targetPoint" />
          </mxGeometry>
        </mxCell>
        <mxCell id="cNCLYO30BbsS-4qU9CMe-51" value="" style="endArrow=none;html=1;rounded=0;entryX=0.5;entryY=1;entryDx=0;entryDy=0;exitX=0.5;exitY=0;exitDx=0;exitDy=0;" edge="1" parent="1" source="cNCLYO30BbsS-4qU9CMe-28" target="cNCLYO30BbsS-4qU9CMe-18">
          <mxGeometry width="50" height="50" relative="1" as="geometry">
            <mxPoint x="300" y="630" as="sourcePoint" />
            <mxPoint x="350" y="580" as="targetPoint" />
          </mxGeometry>
        </mxCell>
      </root>
    </mxGraphModel>
  </diagram>
</mxfile>
